<?xml version="1.0" standalone="no"?>
<!DOCTYPE svg PUBLIC "-//W3C//DTD SVG 20010904//EN"
 "http://www.w3.org/TR/2001/REC-SVG-20010904/DTD/svg10.dtd">
<svg version="1.0" xmlns="http://www.w3.org/2000/svg"
 width="512.000000pt" height="512.000000pt" viewBox="0 0 512.000000 512.000000"
 preserveAspectRatio="xMidYMid meet">

<g transform="translate(0.000000,512.000000) scale(0.100000,-0.100000)"
fill="#000000" stroke="none">
<path d="M2140 4727 c-113 -71 -146 -115 -311 -409 -75 -134 -266 -472 -424
-753 -158 -280 -309 -548 -335 -595 -26 -47 -127 -227 -225 -400 -98 -173
-197 -349 -220 -390 -23 -41 -121 -214 -217 -385 -96 -170 -209 -371 -251
-445 -104 -186 -120 -235 -125 -391 -7 -209 41 -342 167 -464 149 -145 337
-224 531 -225 115 0 189 17 295 69 138 68 222 158 335 361 29 52 62 111 73
130 11 19 61 107 110 195 49 88 178 318 287 510 109 193 220 391 247 440 28
50 61 108 73 130 13 22 64 114 115 205 50 91 103 185 117 210 88 158 117 219
108 225 -5 3 -10 -3 -10 -14 0 -23 -16 -36 -25 -21 -5 8 -11 8 -19 1 -7 -6
-16 -9 -20 -6 -3 3 -1 -1 4 -7 9 -10 13 -10 20 2 9 13 10 13 10 0 0 -25 -17
-43 -30 -35 -10 6 -12 2 -8 -12 3 -12 1 -27 -4 -34 -8 -11 -9 -10 -4 4 7 22
-26 24 -44 2 -7 -8 -17 -15 -21 -15 -5 0 -26 -15 -45 -32 -20 -18 -48 -34 -62
-35 -15 -1 -52 -7 -82 -13 -30 -5 -77 -13 -104 -17 -56 -7 -286 16 -286 28 0
5 -19 10 -42 10 -30 2 -35 3 -15 6 15 2 27 8 27 13 0 8 -65 32 -122 44 -16 4
-28 10 -28 15 0 16 -50 62 -60 56 -16 -10 -40 15 -40 41 0 15 -10 30 -27 41
-36 23 -40 28 -47 74 -5 30 -11 39 -26 39 -16 0 -20 7 -20 34 0 19 -5 47 -12
63 -17 42 -37 266 -24 275 15 10 17 69 2 62 -6 -3 -4 0 5 8 16 13 19 19 19 39
0 5 4 8 9 5 5 -4 7 2 4 12 -4 17 26 80 107 222 20 36 54 97 75 135 21 39 78
141 126 227 49 86 143 255 210 375 148 266 180 307 332 425 40 32 13 18 -73
-35z"/>
<path d="M2506 2778 c3 -5 10 -6 15 -3 13 9 11 12 -6 12 -8 0 -12 -4 -9 -9z"/>
<path d="M2580 2760 c0 -34 15 -63 215 -415 35 -60 154 -272 265 -470 285
-506 547 -972 653 -1160 90 -159 124 -201 222 -277 38 -30 37 -28 -11 23 -73
77 -82 92 -384 629 -150 267 -300 535 -335 595 -34 61 -86 153 -115 205 -29
52 -81 145 -115 205 -34 61 -124 220 -200 355 -76 135 -150 268 -166 295 l-29
50 0 -35z"/>
</g>
</svg>
